<svg width="32" height="32" viewBox="0 0 32 32" fill="none" xmlns="http://www.w3.org/2000/svg">
<rect x="0.25" y="0.25" width="31.5" height="31.5" rx="9.75" fill="white" stroke="#E8E8E8" stroke-width="0.5"/>
<path d="M15.192 22.0669C15.3091 21.9497 15.375 21.7908 15.375 21.625C15.375 21.4593 15.3091 21.3003 15.192 21.1831L10.6339 16.625H22.875C23.0408 16.625 23.1997 16.5592 23.3169 16.442C23.4342 16.3247 23.5 16.1658 23.5 16C23.5 15.8343 23.4342 15.6753 23.3169 15.5581C23.1997 15.4409 23.0408 15.375 22.875 15.375H10.6339L15.192 10.8169C15.3092 10.6997 15.375 10.5408 15.375 10.375C15.375 10.2092 15.3092 10.0503 15.1919 9.93304C15.0747 9.81584 14.9157 9.74999 14.75 9.75C14.5842 9.75001 14.4252 9.81586 14.308 9.93308L8.68303 15.5581C8.68099 15.5601 8.67931 15.5624 8.67731 15.5644C8.66496 15.5771 8.65299 15.5901 8.64175 15.6037C8.63548 15.6114 8.63 15.6195 8.62415 15.6273C8.61782 15.6358 8.61124 15.6441 8.60532 15.6529C8.59924 15.662 8.59395 15.6715 8.58838 15.6808C8.58352 15.689 8.57839 15.6969 8.57387 15.7054C8.56885 15.7148 8.56458 15.7244 8.56006 15.734C8.55584 15.7429 8.5514 15.7517 8.54761 15.7608C8.54379 15.7701 8.5407 15.7795 8.53734 15.7889C8.5338 15.7988 8.53002 15.8085 8.52697 15.8186C8.52414 15.8279 8.52207 15.8374 8.51968 15.8469C8.51709 15.8572 8.51419 15.8674 8.51211 15.8779C8.50995 15.8888 8.50866 15.8998 8.50709 15.9108C8.50578 15.92 8.50402 15.929 8.50311 15.9383C8.50109 15.9589 8.5 15.9794 8.5 16C8.5 16.0206 8.50109 16.0412 8.50311 16.0617C8.50402 16.071 8.50578 16.08 8.50709 16.0893C8.50866 16.1002 8.50995 16.1112 8.51211 16.1221C8.51419 16.1326 8.51709 16.1428 8.51968 16.1531C8.52207 16.1626 8.52414 16.1721 8.52697 16.1814C8.53002 16.1915 8.5338 16.2013 8.53734 16.2111C8.5407 16.2205 8.54379 16.23 8.54761 16.2392C8.5514 16.2483 8.55584 16.2571 8.56006 16.266C8.56458 16.2756 8.56885 16.2853 8.57387 16.2947C8.57839 16.3031 8.58352 16.3111 8.58838 16.3192C8.59395 16.3286 8.59924 16.338 8.60532 16.3471C8.61123 16.3559 8.61781 16.3642 8.62415 16.3727C8.63001 16.3806 8.63548 16.3887 8.64175 16.3963C8.65318 16.4102 8.66537 16.4234 8.67796 16.4363C8.67973 16.4381 8.68122 16.4402 8.68303 16.4419L14.308 22.0669C14.3661 22.125 14.435 22.171 14.5108 22.2024C14.5866 22.2339 14.6679 22.25 14.75 22.25C14.8321 22.25 14.9134 22.2339 14.9892 22.2024C15.065 22.171 15.1339 22.125 15.192 22.0669Z" fill="#333333" stroke="#333333" stroke-width="2"/>
</svg>
