<svg width="17" height="14" viewBox="0 0 17 14" fill="none" xmlns="http://www.w3.org/2000/svg">
<path d="M14.875 2.625H2.375C2.20924 2.625 2.05027 2.55915 1.93306 2.44194C1.81585 2.32473 1.75 2.16576 1.75 2C1.75 1.83424 1.81585 1.67527 1.93306 1.55806C2.05027 1.44085 2.20924 1.375 2.375 1.375H13C13.1658 1.375 13.3247 1.30915 13.4419 1.19194C13.5592 1.07473 13.625 0.91576 13.625 0.75C13.625 0.58424 13.5592 0.425269 13.4419 0.308058C13.3247 0.190848 13.1658 0.125 13 0.125H2.375C1.87789 0.125569 1.40131 0.323295 1.0498 0.674803C0.698295 1.02631 0.500569 1.50289 0.5 2V12C0.500569 12.4971 0.698295 12.9737 1.0498 13.3252C1.40131 13.6767 1.87789 13.8744 2.375 13.875H14.875C15.2064 13.8746 15.5241 13.7428 15.7585 13.5085C15.9928 13.2741 16.1246 12.9564 16.125 12.625V3.875C16.1246 3.5436 15.9928 3.22587 15.7585 2.99154C15.5241 2.7572 15.2064 2.62538 14.875 2.625ZM12.0625 9.1875C11.8771 9.1875 11.6958 9.13252 11.5417 9.0295C11.3875 8.92649 11.2673 8.78007 11.1964 8.60876C11.1254 8.43746 11.1068 8.24896 11.143 8.0671C11.1792 7.88525 11.2685 7.7182 11.3996 7.58709C11.5307 7.45598 11.6977 7.36669 11.8796 7.33051C12.0615 7.29434 12.25 7.31291 12.4213 7.38386C12.5926 7.45482 12.739 7.57498 12.842 7.72915C12.945 7.88332 13 8.06458 13 8.25C13 8.49864 12.9012 8.7371 12.7254 8.91291C12.5496 9.08873 12.3111 9.1875 12.0625 9.1875Z" fill="#6561E8"/>
</svg>
