<?xml version="1.0" encoding="UTF-8"?>
<svg width="840px" height="442px" viewBox="0 0 840 442" version="1.1" xmlns="http://www.w3.org/2000/svg" xmlns:xlink="http://www.w3.org/1999/xlink">
    <!-- Generator: Sketch 41.2 (35397) - http://www.bohemiancoding.com/sketch -->
    <title>Logo-Color</title>
    <desc>Created with Sketch.</desc>
    <defs></defs>
    <g id="Page-1" stroke="none" stroke-width="1" fill="none" fill-rule="evenodd">
        <g id="Logo-Color">
            <g id="Logo-WaterBridge-in-(1)" transform="translate(34.000000, 24.000000)">
                <g id="svg35">
                    <g id="Layer1000">
                        <polygon id="path4" fill="#007AC3" points="29.0749 246.1147 30.9478 258.7741 31.3507 258.8452 34.0771 246.1147 52.6159 179.9959 64.7066 179.9959 83.3875 246.1147 86.1612 259.106 86.588 259.106 88.603 246.1147 103.6569 179.9959 117.3359 179.9959 92.9652 281.1298 80.756 281.1298 60.8185 210.9811 59.0168 201.8776 58.59 201.8776 56.8594 210.9811 36.5665 281.1298 24.3574 281.1298 0.0339 179.9959 13.6418 179.9959"></polygon>
                        <path d="M177.4859,281.1298 C177.0353,278.854 176.6799,276.8625 176.4191,275.1319 C176.1582,273.3777 176.0161,271.6471 175.9688,269.8691 C173.4083,273.4961 170.0892,276.5071 165.9881,278.9251 C161.9103,281.3431 157.4773,282.5524 152.7595,282.5524 C144.9363,282.5524 138.9859,280.5371 134.8846,276.5306 C130.7832,272.5241 128.7444,267.0006 128.7444,259.9596 C128.7444,252.7764 131.6368,247.1577 137.4447,243.1039 C143.2529,239.0499 151.1475,237.0349 161.1043,237.0349 L175.9688,237.0349 L175.9688,229.6385 C175.9688,225.2763 174.6173,221.815 171.9385,219.2546 C169.2597,216.6944 165.4427,215.4141 160.5353,215.4141 C156.1497,215.4141 152.57,216.5285 149.8198,218.757 C147.0699,220.9852 145.6712,223.6643 145.6712,226.7699 L132.6322,226.7699 L132.4901,226.367 C132.2058,220.9142 134.7897,215.9119 140.2187,211.3841 C145.6712,206.856 152.6884,204.604 161.3178,204.604 C169.8287,204.604 176.6799,206.7611 181.8715,211.0995 C187.0635,215.4141 189.6474,221.6729 189.6474,229.8042 L189.6474,265.981 C189.6474,268.6836 189.7899,271.2679 190.0504,273.7569 C190.3351,276.2698 190.8564,278.7118 191.5916,281.1298 L177.4859,281.1298 Z M154.7747,271.0305 C159.7294,271.0305 164.2099,269.7505 168.1929,267.2138 C172.1755,264.6772 174.7595,261.7613 175.9688,258.4898 L175.9688,246.2806 L160.6064,246.2806 C155.1066,246.2806 150.6969,247.6556 147.378,250.4292 C144.0827,253.2029 142.4234,256.4745 142.4234,260.2204 C142.4234,263.5393 143.4665,266.1708 145.5525,268.1147 C147.6151,270.0586 150.6969,271.0305 154.7747,271.0305 L154.7747,271.0305 Z" id="path6" fill="#007AC3"></path>
                        <path d="M225.852,187.8905 L225.852,206.0262 L240.0761,206.0262 L240.0761,216.1255 L225.852,216.1255 L225.852,261.5005 C225.852,265.0091 226.5631,267.4509 228.033,268.8972 C229.5028,270.3194 231.4232,271.0305 233.8412,271.0305 C234.6234,271.0305 235.4769,270.936 236.4251,270.7462 C237.3735,270.5565 238.2268,270.3432 238.9617,270.0586 L240.7873,279.6362 C239.768,280.4898 238.2744,281.1771 236.3067,281.7226 C234.339,282.2677 232.3475,282.5524 230.3564,282.5524 C224.8087,282.5524 220.3757,280.869 217.1042,277.5264 C213.8088,274.1599 212.173,268.8972 212.173,261.7375 L212.173,216.1255 L200.2247,216.1255 L200.2247,206.0262 L212.173,206.0262 L212.173,187.8905 L225.852,187.8905 Z" id="path8" fill="#007AC3"></path>
                        <path d="M286.1879,282.5524 C275.7332,282.5524 267.4121,279.0673 261.2247,272.0974 C255.037,265.1512 251.9552,256.0953 251.9552,245.0005 L251.9552,241.9422 C251.9552,231.2505 255.1319,222.3602 261.509,215.2481 C267.8624,208.1598 275.4012,204.604 284.1256,204.604 C294.2484,204.604 301.9056,207.662 307.0976,213.7548 C312.2892,219.8711 314.8735,228.0027 314.8735,238.1728 L314.8735,246.7074 L266.132,246.7074 L265.9185,247.0628 C266.0607,254.2463 267.8862,260.1493 271.3948,264.7958 C274.9272,269.4185 279.8583,271.7419 286.1879,271.7419 C290.8347,271.7419 294.8884,271.0781 298.397,269.7505 C301.8821,268.4466 304.8928,266.6211 307.453,264.298 L312.7871,273.2118 C310.1083,275.8906 306.5759,278.0953 302.1664,279.8732 C297.7808,281.6515 292.4466,282.5524 286.1879,282.5524 L286.1879,282.5524 Z M284.1256,215.4141 C279.5264,215.4141 275.6148,217.3345 272.3667,221.1512 C269.1428,224.9917 267.1513,229.7807 266.3926,235.5413 L266.535,235.897 L301.1945,235.897 L301.1945,234.1191 C301.1945,228.7849 299.772,224.3517 296.9034,220.772 C294.0113,217.1923 289.7678,215.4141 284.1256,215.4141 L284.1256,215.4141 Z" id="path10" fill="#007AC3"></path>
                        <path d="M363.8552,218.1167 L356.8381,217.6902 C353.2346,217.6902 350.1763,218.5435 347.7107,220.2503 C345.2216,221.981 343.325,224.3755 341.9736,227.4811 L341.9736,281.1298 L328.2949,281.1298 L328.2949,206.0262 L340.5276,206.0262 L341.8314,217.0026 C343.9651,213.1148 346.5966,210.0803 349.726,207.8755 C352.8551,205.6943 356.4351,204.604 360.5126,204.604 C361.5318,204.604 362.5038,204.675 363.4285,204.841 C364.3531,205.007 365.1353,205.1729 365.7281,205.3624 L363.8552,218.1167 Z" id="path12" fill="#007AC3"></path>
                        <path d="M379.267,281.1298 L379.267,179.9959 L412.2672,179.9959 C422.8167,179.9959 431.0905,182.272 437.0647,186.8474 C443.0388,191.3991 446.0258,198.2503 446.0258,207.3539 C446.0258,211.8582 444.5797,215.8647 441.7112,219.4205 C438.8426,222.9529 435.0732,225.5845 430.4029,227.2913 C436.4957,228.5952 441.3082,231.5824 444.8168,236.2527 C448.3016,240.9465 450.056,246.3755 450.056,252.5867 C450.056,261.8324 447.0453,268.9207 441.0473,273.8045 C435.0494,278.6881 426.9181,281.1298 416.6528,281.1298 L379.267,281.1298 Z M392.9459,233.7633 L392.9459,270.3194 L416.6528,270.3194 C422.8405,270.3194 427.6765,268.7785 431.1616,265.7202 C434.6226,262.6622 436.377,258.3238 436.377,252.7054 C436.377,246.8023 434.931,242.1793 432.0149,238.8128 C429.1228,235.4467 424.6658,233.7633 418.6681,233.7633 L392.9459,233.7633 Z M392.9459,222.9529 L415.1119,222.9529 C420.209,222.9529 424.3576,221.5542 427.5581,218.757 C430.7348,215.9595 432.3468,212.0714 432.3468,207.093 C432.3468,201.6405 430.6161,197.563 427.1551,194.8604 C423.7176,192.1578 418.7392,190.8063 412.2672,190.8063 L392.9459,190.8063 L392.9459,222.9529 Z" id="path14" fill="#007AC3"></path>
                        <path d="M500.4136,218.1167 L493.3965,217.6902 C489.793,217.6902 486.7347,218.5435 484.2691,220.2503 C481.7801,221.981 479.8834,224.3755 478.532,227.4811 L478.532,281.1298 L464.8533,281.1298 L464.8533,206.0262 L477.086,206.0262 L478.3898,217.0026 C480.5235,213.1148 483.155,210.0803 486.2844,207.8755 C489.4135,205.6943 492.9935,204.604 497.071,204.604 C498.0902,204.604 499.0622,204.675 499.9869,204.841 C500.9115,205.007 501.6937,205.1729 502.2865,205.3624 L500.4136,218.1167 Z" id="path16" fill="#007AC3"></path>
                        <path d="M528.0583,281.1298 L514.3794,281.1298 L514.3794,206.0262 L528.0583,206.0262 L528.0583,281.1298 Z M528.0583,186.8236 L514.3794,186.8236 L514.3794,172.5995 L528.0583,172.5995 L528.0583,186.8236 Z" id="path18" fill="#007AC3"></path>
                        <path d="M542.4261,244.9295 C542.4261,232.8625 545.0101,223.1189 550.1782,215.6987 C555.3464,208.302 562.5768,204.604 571.8701,204.604 C576.2796,204.604 580.1674,205.41 583.5814,207.0457 C586.9951,208.6577 589.8875,211.0284 592.3055,214.1102 L592.3055,172.7417 L605.9844,172.7417 L605.9844,281.1298 L594.7948,281.1298 L593.2063,271.8841 C590.7408,275.4165 587.73,278.0715 584.1739,279.8732 C580.618,281.6515 576.4693,282.5524 571.728,282.5524 C562.5768,282.5524 555.3937,279.2332 550.202,272.5952 C545.0339,265.9572 542.4261,257.2094 542.4261,246.3993 L542.4261,244.9295 Z M556.1051,246.3993 C556.1051,253.9854 557.6695,260.0545 560.7751,264.6061 C563.8572,269.1815 568.6935,271.4573 575.2128,271.4573 C579.2903,271.4573 582.704,270.533 585.5015,268.6836 C588.2752,266.8346 590.5275,264.2269 592.3055,260.9077 L592.3055,225.8453 C590.5275,222.7397 588.2517,220.2741 585.4542,218.4486 C582.6567,216.6234 579.2903,215.6987 575.3549,215.6987 C568.7645,215.6987 563.9283,218.4013 560.7989,223.8303 C557.6695,229.2352 556.1051,236.2762 556.1051,244.9295 L556.1051,246.3993 Z" id="path20" fill="#007AC3"></path>
                        <path d="M621.7531,244.9295 C621.7531,232.8625 624.3846,223.1189 629.6711,215.6987 C634.958,208.302 642.236,204.604 651.5528,204.604 C656.318,204.604 660.5139,205.5759 664.1174,207.496 C667.7208,209.4399 670.7315,212.2139 673.1498,215.8171 L674.8091,206.0262 L685.7144,206.0262 L685.7144,281.5328 C685.7144,291.1342 682.9169,298.5306 677.3222,303.6988 C671.7035,308.8432 663.6433,311.4274 653.0699,311.4274 C649.4664,311.4274 645.5548,310.9295 641.3824,309.9338 C637.1862,308.9381 633.4882,307.5869 630.2877,305.8797 L633.7725,295.2591 C636.2142,296.634 639.1777,297.7722 642.6625,298.6255 C646.1238,299.4791 649.5613,299.9056 652.9277,299.9056 C659.613,299.9056 664.4493,298.3885 667.4838,295.354 C670.5183,292.3194 672.0354,287.7202 672.0354,281.509 L672.0354,273.0458 C669.5936,276.1752 666.654,278.5694 663.2165,280.1579 C659.779,281.7461 655.8436,282.5524 651.4103,282.5524 C642.1884,282.5524 634.958,279.2094 629.6711,272.5479 C624.3846,265.8862 621.7531,257.1621 621.7531,246.3993 L621.7531,244.9295 Z M635.4321,246.3993 C635.4321,253.9378 637.0202,260.0069 640.2207,264.5823 C643.4212,269.1577 648.2812,271.4573 654.8243,271.4573 C658.9257,271.4573 662.3867,270.5092 665.1604,268.6363 C667.9341,266.7635 670.2337,264.1082 672.0354,260.6945 L672.0354,226.1061 C670.2813,222.9294 667.9817,220.3928 665.1604,218.5197 C662.3394,216.6469 658.9257,215.6987 654.9427,215.6987 C648.4234,215.6987 643.5399,218.4251 640.2918,223.9014 C637.044,229.3539 635.4321,236.3711 635.4321,244.9295 L635.4321,246.3993 Z" id="path22" fill="#007AC3"></path>
                        <path d="M735.1705,282.5524 C724.7158,282.5524 716.3948,279.0673 710.2074,272.0974 C704.0197,265.1512 700.9379,256.0953 700.9379,245.0005 L700.9379,241.9422 C700.9379,231.2505 704.1145,222.3602 710.4917,215.2481 C716.8451,208.1598 724.3839,204.604 733.1083,204.604 C743.2311,204.604 750.8883,207.662 756.0802,213.7548 C761.2719,219.8711 763.8561,228.0027 763.8561,238.1728 L763.8561,246.7074 L715.1147,246.7074 L714.9012,247.0628 C715.0433,254.2463 716.8689,260.1493 720.3775,264.7958 C723.9098,269.4185 728.841,271.7419 735.1705,271.7419 C739.8173,271.7419 743.8711,271.0781 747.3797,269.7505 C750.8648,268.4466 753.8755,266.6211 756.4357,264.298 L761.7698,273.2118 C759.091,275.8906 755.5586,278.0953 751.1491,279.8732 C746.7634,281.6515 741.4293,282.5524 735.1705,282.5524 L735.1705,282.5524 Z M733.1083,215.4141 C728.5091,215.4141 724.5975,217.3345 721.3494,221.1512 C718.1254,224.9917 716.1339,229.7807 715.3752,235.5413 L715.5177,235.897 L750.1772,235.897 L750.1772,234.1191 C750.1772,228.7849 748.7546,224.3517 745.8861,220.772 C742.994,217.1923 738.7505,215.4141 733.1083,215.4141 L733.1083,215.4141 Z" id="path24" fill="#007AC3"></path>
                        <path d="M211.115,369.8169 L212.7477,375.4899 L213.0342,375.4899 L214.6669,369.8169 L233.2005,315.8655 L243.7049,315.8655 L217.0403,387.6774 L208.691,387.6774 L182.0267,315.8655 L192.5645,315.8655 L211.115,369.8169 Z M271.817,388.6873 C264.3932,388.6873 258.4848,386.213 254.0913,381.2638 C249.6978,376.3314 247.5093,369.9013 247.5093,362.023 L247.5093,359.8514 C247.5093,352.2595 249.7649,345.9471 254.2934,340.897 C258.8046,335.8638 264.1577,333.3386 270.3523,333.3386 C277.5403,333.3386 282.9777,335.5102 286.664,339.8365 C290.3506,344.1794 292.1855,349.9533 292.1855,357.175 L292.1855,363.235 L257.5758,363.235 L257.4243,363.4877 C257.5252,368.5881 258.8215,372.7798 261.313,376.079 C263.821,379.3617 267.3223,381.0114 271.817,381.0114 C275.1163,381.0114 277.9948,380.54 280.4863,379.5973 C282.9609,378.6714 285.0987,377.3754 286.9167,375.7254 L290.7042,382.055 C288.8019,383.957 286.2939,385.5226 283.1627,386.7852 C280.0486,388.0478 276.2611,388.6873 271.817,388.6873 L271.817,388.6873 Z M270.3523,341.0148 C267.0868,341.0148 264.3092,342.3783 262.003,345.0884 C259.7136,347.8154 258.2995,351.2159 257.761,355.3064 L257.8619,355.5591 L282.4726,355.5591 L282.4726,354.2965 C282.4726,350.509 281.4624,347.3609 279.4258,344.8191 C277.3719,342.2774 274.3588,341.0148 270.3523,341.0148 Z M311.7799,334.3488 L312.4699,342.2939 C314.2376,339.466 316.4595,337.2607 319.1531,335.6954 C321.8295,334.1298 324.8764,333.3386 328.2937,333.3386 C334.0507,333.3386 338.4948,335.0219 341.6594,338.3887 C344.8072,341.7554 346.3897,346.957 346.3897,353.9935 L346.3897,387.6774 L336.6768,387.6774 L336.6768,354.1953 C336.6768,349.4819 335.7509,346.1489 333.8992,344.1794 C332.0306,342.2099 329.2027,341.2169 325.3815,341.2169 C322.587,341.2169 320.1124,341.89 317.9577,343.2367 C315.8029,344.5833 314.0861,346.435 312.8067,348.7581 L312.8067,387.6774 L303.0938,387.6774 L303.0938,334.3488 L311.7799,334.3488 Z M373.3235,321.471 L373.3235,334.3488 L383.4237,334.3488 L383.4237,341.5199 L373.3235,341.5199 L373.3235,373.7391 C373.3235,376.2305 373.8283,377.9645 374.8723,378.9913 C375.9159,380.0012 377.2794,380.5063 378.9965,380.5063 C379.5519,380.5063 380.1579,380.4388 380.8311,380.3042 C381.5045,380.1695 382.1105,380.018 382.6325,379.8162 L383.9285,386.6169 C383.2048,387.2229 382.1443,387.7111 380.747,388.0981 C379.3498,388.4855 377.9357,388.6873 376.5219,388.6873 C372.5829,388.6873 369.4348,387.4921 367.1117,385.1187 C364.7721,382.7282 363.6104,378.9913 363.6104,373.9074 L363.6104,341.5199 L355.1264,341.5199 L355.1264,334.3488 L363.6104,334.3488 L363.6104,321.471 L373.3235,321.471 Z M429.2951,379.7825 C427.6117,382.6441 425.457,384.8495 422.8309,386.381 C420.2048,387.9129 417.1579,388.6873 413.7072,388.6873 C407.8827,388.6873 403.3546,386.8358 400.0887,383.1155 C396.8398,379.412 395.207,373.6213 395.207,365.777 L395.207,334.3488 L404.9199,334.3488 L404.9199,365.8779 C404.9199,371.5678 405.7617,375.473 407.4451,377.6109 C409.1116,379.7488 411.7377,380.8093 415.2893,380.8093 C418.7404,380.8093 421.5852,380.1192 423.8408,378.722 C426.0967,377.3248 427.7967,375.3384 428.9415,372.7798 L428.9415,334.3488 L438.6544,334.3488 L438.6544,387.6774 L429.9345,387.6774 L429.2951,379.7825 Z M478.0618,342.9337 L473.0792,342.6307 C470.5206,342.6307 468.349,343.2367 466.5981,344.4487 C464.8307,345.6775 463.4841,347.3778 462.5245,349.5831 L462.5245,387.6774 L452.8116,387.6774 L452.8116,334.3488 L461.4977,334.3488 L462.4236,342.1424 C463.9386,339.382 465.8072,337.2273 468.0291,335.6617 C470.251,334.1129 472.7931,333.3386 475.6884,333.3386 C476.4122,333.3386 477.1025,333.3892 477.7588,333.5069 C478.4154,333.6247 478.9708,333.7425 479.3919,333.8774 L478.0618,342.9337 Z M508.6317,388.6873 C501.2079,388.6873 495.2994,386.213 490.9059,381.2638 C486.5124,376.3314 484.3239,369.9013 484.3239,362.023 L484.3239,359.8514 C484.3239,352.2595 486.5796,345.9471 491.108,340.897 C495.6193,335.8638 500.9724,333.3386 507.167,333.3386 C514.355,333.3386 519.7924,335.5102 523.4787,339.8365 C527.1653,344.1794 529.0002,349.9533 529.0002,357.175 L529.0002,363.235 L494.3904,363.235 L494.2389,363.4877 C494.3398,368.5881 495.6361,372.7798 498.1276,376.079 C500.6356,379.3617 504.137,381.0114 508.6317,381.0114 C511.931,381.0114 514.8095,380.54 517.3009,379.5973 C519.7755,378.6714 521.9134,377.3754 523.7314,375.7254 L527.5189,382.055 C525.6166,383.957 523.1085,385.5226 519.9773,386.7852 C516.8633,388.0478 513.0758,388.6873 508.6317,388.6873 L508.6317,388.6873 Z M507.167,341.0148 C503.9015,341.0148 501.1239,342.3783 498.8176,345.0884 C496.5283,347.8154 495.1142,351.2159 494.5756,355.3064 L494.6765,355.5591 L519.2873,355.5591 L519.2873,354.2965 C519.2873,350.509 518.2771,347.3609 516.2404,344.8191 C514.1866,342.2774 511.1735,341.0148 507.167,341.0148 L507.167,341.0148 Z M570.9325,373.4529 C570.9325,371.3319 570.1079,369.5814 568.4917,368.201 C566.8589,366.8375 563.7783,365.6421 559.2333,364.6153 C552.7691,363.2181 547.8874,361.2992 544.6218,358.8752 C541.3391,356.4681 539.7064,353.1685 539.7064,349.0105 C539.7064,344.6676 541.5581,340.981 545.2278,337.9173 C548.9144,334.8704 553.7118,333.3386 559.6372,333.3386 C565.849,333.3386 570.781,334.9379 574.4508,338.1194 C578.1205,341.3178 579.8713,345.1893 579.703,349.768 L579.6021,350.0545 L570.3434,350.0545 C570.3434,347.7314 569.3504,345.6438 567.3977,343.7924 C565.4448,341.9406 562.8524,341.0148 559.6372,341.0148 C556.1864,341.0148 553.6109,341.7723 551.9444,343.2704 C550.2611,344.7854 549.4192,346.6034 549.4192,348.7413 C549.4192,350.8288 550.1602,352.4953 551.6414,353.7073 C553.1227,354.9193 556.1358,355.9967 560.6643,356.9391 C567.4143,358.387 572.431,360.3565 575.7134,362.8311 C578.9961,365.3225 580.6457,368.6387 580.6457,372.8132 C580.6457,377.5434 578.7265,381.3815 574.9053,384.2938 C571.0675,387.2229 566.0677,388.6873 559.873,388.6873 C553.0721,388.6873 547.7193,386.9536 543.7969,383.5025 C539.8916,380.0518 538.0399,376.0284 538.2251,371.4328 L538.326,371.1298 L547.6012,371.1298 C547.7696,374.5472 549.0491,377.0555 551.4562,378.6377 C553.8465,380.2201 556.6578,381.0114 559.873,381.0114 C563.3407,381.0114 566.0342,380.321 567.9869,378.9238 C569.9564,377.5434 570.9325,375.7086 570.9325,373.4529 L570.9325,373.4529 Z" id="path26" fill="#9B9D9F"></path>
                        <path d="M280.2393,0.5883 L273.3886,0.5883 L273.3886,12.0291 L177.7368,143.7424 L179.2816,144.8626 L273.3886,15.2786 L273.3886,23.294 L181.1561,143.5301 L182.6726,144.6948 L273.3886,26.4303 L273.3886,35.7136 L185.2407,142.606 L186.7148,143.8213 L273.3886,38.7123 L273.3886,48.0239 L191.6486,140.0016 L193.0762,141.2694 L273.3886,50.8972 L273.3886,59.5699 L198.6733,136.0828 L200.0402,137.4133 L273.3886,62.3037 L273.3886,67.1061 L268.4992,146.2477 L285.1287,146.2477 L280.2393,67.1061 L280.2393,59.1412 L353.5331,115.3607 L354.53,113.735 L280.2393,56.7471 L280.2393,54.7169 L360.392,115.3607 L361.3889,113.735 L280.2393,52.3349 L280.2393,50.4322 L367.7786,114.4811 L368.7755,112.8554 L280.2393,48.0744 L280.2393,40.1621 L383.2535,112.548 L384.2524,110.9223 L280.2393,37.8327 L280.2393,35.8996 L388.5311,110.259 L389.53,108.6333 L280.2393,33.5863 L280.2393,31.6532 L400.3419,111.9656 L401.3408,110.3399 L280.2393,29.3582 L280.2393,20.4389 L425.0475,114.9563 L426.0849,113.3568 L280.2393,18.16 L280.2393,16.506 L436.7371,115.9026 L437.736,114.2769 L280.2393,14.2453 L280.2393,12.4659 L442.5586,112.5925 L443.5575,110.9667 L280.2393,10.2234 L280.2393,0.5883 Z M279.4507,110.9061 L274.1752,110.9061 L276.7492,67.739 L276.7836,67.739 L279.4507,110.9061 Z" id="path28" fill="#868789"></path>
                        <path d="M483.4428,0.5883 L490.2935,0.5883 L490.2935,12.0291 L585.9453,143.7424 L584.4005,144.8626 L490.2935,15.2786 L490.2935,23.294 L582.526,143.5301 L581.0094,144.6948 L490.2935,26.4303 L490.2935,35.7136 L578.4414,142.606 L576.9673,143.8213 L490.2935,38.7123 L490.2935,48.0239 L572.0335,140.0016 L570.6059,141.2694 L490.2935,50.8972 L490.2935,59.5699 L565.0088,136.0828 L563.6419,137.4133 L490.2935,62.3037 L490.2935,67.1061 L495.1829,146.2477 L478.5534,146.2477 L483.4428,67.1061 L483.4428,59.1412 L410.149,115.3607 L409.1521,113.735 L483.4428,56.7471 L483.4428,54.7169 L403.2901,115.3607 L402.2932,113.735 L483.4428,52.3349 L483.4428,50.4322 L395.9035,114.4811 L394.9066,112.8554 L483.4428,48.0744 L483.4428,40.1621 L380.4286,112.548 L379.4297,110.9223 L483.4428,37.8327 L483.4428,35.8996 L375.151,110.259 L374.1521,108.6333 L483.4428,33.5863 L483.4428,31.6532 L363.3402,111.9656 L362.3413,110.3399 L483.4428,29.3582 L483.4428,20.4389 L338.6346,114.9563 L337.5972,113.3568 L483.4428,18.16 L483.4428,16.506 L326.945,115.9026 L325.9461,114.2769 L483.4428,14.2453 L483.4428,12.4659 L321.1235,112.5925 L320.1246,110.9667 L483.4428,10.2234 L483.4428,0.5883 Z M484.2314,110.9061 L489.5069,110.9061 L486.9328,67.739 L486.8985,67.739 L484.2314,110.9061 Z" id="path30" fill="#868789"></path>
                        <path d="M110.2477,170.0159 C283.4469,85.8986 476.6178,85.967 651.8406,170.0159 C457.9292,91.7905 285.0487,105.2565 110.2477,170.0159 Z" id="path32" fill="#007AC3"></path>
                    </g>
                </g>
            </g>
        </g>
    </g>
</svg>