<svg xmlns="http://www.w3.org/2000/svg" xmlns:xlink="http://www.w3.org/1999/xlink" width="80" height="80" viewBox="0 0 80 80">
    <defs>
        <linearGradient id="prefix__b" x1="33.048%" x2="66.952%" y1="0%" y2="100%">
            <stop offset="0%" stop-color="#EF1C74"/>
            <stop offset="48.384%" stop-color="#EF1C74"/>
            <stop offset="100%" stop-color="#2E108E"/>
        </linearGradient>
        <linearGradient id="prefix__d" x1="55.164%" x2="55.164%" y1="16.212%" y2="190.579%">
            <stop offset="0%" stop-color="#EF1C74"/>
            <stop offset="100%" stop-color="#4B128A"/>
        </linearGradient>
        <rect id="prefix__a" width="34.937" height="60" x="0" y="0" rx="6.076"/>
    </defs>
    <g fill="none" fill-rule="evenodd">
        <g>
            <path fill="#FCD2E3" d="M46.917.05L18.084.006c-2.337-.004-4.559 1.015-6.081 2.787L1.935 14.516C.687 15.97.002 17.824.005 19.74l.068 46.203c.007 4.41 3.58 7.982 7.989 7.989l38.915.056c4.418.007 8.005-3.57 8.011-7.988v-.023l-.083-57.939C54.9 3.63 51.326.057 46.917.05z" transform="translate(9 3) matrix(-1 0 0 1 55 0)"/>
            <g fill="#FFF" fill-rule="nonzero">
                <path fill-opacity=".443" d="M33.851 47.849H6.559c-3.362 0-6.088-2.665-6.088-5.952V6.292C.471 3.005 3.197.34 6.56.34h27.292c3.362 0 6.088 2.665 6.088 5.952v35.605c0 3.287-2.726 5.952-6.088 5.952z" transform="translate(9 3) matrix(-1 0 0 1 55 0) translate(9 21)"/>
                <path d="M39.94 19.523h-2.518c-.174 0-.332-.099-.401-.251-1.59-3.482-5.137-5.732-9.035-5.732h-.477V.34h-2.08v13.373c0 .938-.781 1.701-1.74 1.701h-6.967c-.96 0-1.74-.763-1.74-1.7V.34h-2.08v13.2h-.477c-3.899 0-7.445 2.25-9.035 5.732-.07.152-.228.251-.402.251H.471v2.034h2.517c.994 0 1.897-.572 2.301-1.456 1.256-2.75 4.057-4.528 7.136-4.528h.987c.66 1.12 1.896 1.875 3.31 1.875h6.966c1.414 0 2.65-.756 3.31-1.875h.987c3.08 0 5.88 1.778 7.136 4.528.404.884 1.307 1.456 2.3 1.456h2.518v-2.034zM39.94 26.633h-2.518c-.994 0-1.897.571-2.301 1.455-1.256 2.75-4.057 4.528-7.135 4.528h-.987c-.66-1.12-1.897-1.875-3.31-1.875h-6.967c-1.414 0-2.65.756-3.31 1.875h-.987c-3.079 0-5.88-1.778-7.136-4.528-.404-.884-1.307-1.455-2.3-1.455H.47v2.033h2.517c.174 0 .332.099.402.251 1.59 3.483 5.136 5.732 9.035 5.732h.476v13.2h2.08V34.476c0-.938.782-1.701 1.741-1.701h6.967c.959 0 1.74.763 1.74 1.7V47.85h2.08v-13.2h.477c3.898 0 7.445-2.25 9.035-5.732.07-.152.227-.25.401-.25h2.517v-2.034z" transform="translate(9 3) matrix(-1 0 0 1 55 0) translate(9 21)"/>
            </g>
        </g>
        <g transform="translate(9 3) translate(27 12)">
            <mask id="prefix__c" fill="#fff">
                <use xlink:href="#prefix__a"/>
            </mask>
            <rect width="36.937" height="62" x="-1" y="-1" stroke="url(#prefix__b)" stroke-width="2" rx="6.076"/>
            <path fill="#FCD2E3" d="M8.076 2h28.86v53.924c0 3.356-2.72 6.076-6.075 6.076H2V8.076C2 4.72 4.72 2 8.076 2z" mask="url(#prefix__c)"/>
            <path fill="url(#prefix__d)" d="M27.052 34.25c-1.453 0-2.86-.236-4.17-.661-.414-.142-.875-.036-1.194.283l-1.507 1.685c-.084.093-.216.126-.333.082-1.845-.69-3.3-1.66-4.366-2.913-1.058-1.242-2.017-2.748-2.877-4.516-.065-.133-.024-.294.097-.38l1.803-1.285c.319-.33.413-.791.283-1.205-.437-1.311-.662-2.717-.662-4.17 0-.638-.531-1.17-1.17-1.17h-4.55C7.768 20 7 20.284 7 21.17c0 10.975 9.132 20.096 20.096 20.096.839 0 1.17-.744 1.17-1.394l-.045-4.452c0-.638-.531-1.17-1.17-1.17z"/>
            <rect width="10" height="2" x="12.5" y="5" fill="#EF0074" rx="1"/>
            <rect width="5" height="5" x="15" y="51" fill="#4D128A" rx="2.5"/>
        </g>
    </g>
</svg>
